<?xml version="1.0" standalone="no"?><!DOCTYPE svg PUBLIC "-//W3C//DTD SVG 1.1//EN" "http://www.w3.org/Graphics/SVG/1.1/DTD/svg11.dtd"><svg t="1643465437950" class="icon" viewBox="0 0 1024 1024" version="1.1" xmlns="http://www.w3.org/2000/svg" p-id="2114" xmlns:xlink="http://www.w3.org/1999/xlink" width="200" height="200"><defs><style type="text/css">@font-face { font-weight: 400; font-style: normal; font-family: Circular-Loom; src: url("https://cdn.loom.com/assets/fonts/circular/CircularXXWeb-Book-cd7d2bcec649b1243839a15d5eb8f0a3.woff2") format("woff2"); }
@font-face { font-weight: 500; font-style: normal; font-family: Circular-Loom; src: url("https://cdn.loom.com/assets/fonts/circular/CircularXXWeb-Medium-d74eac43c78bd5852478998ce63dceb3.woff2") format("woff2"); }
@font-face { font-weight: 700; font-style: normal; font-family: Circular-Loom; src: url("https://cdn.loom.com/assets/fonts/circular/CircularXXWeb-Bold-83b8ceaf77f49c7cffa44107561909e4.woff2") format("woff2"); }
@font-face { font-weight: 900; font-style: normal; font-family: Circular-Loom; src: url("https://cdn.loom.com/assets/fonts/circular/CircularXXWeb-Black-bf067ecb8aa777ceb6df7d72226febca.woff2") format("woff2"); }
</style></defs><path d="M512 85.333333C276.48 85.333333 85.333333 276.48 85.333333 512S276.48 938.666667 512 938.666667 938.666667 747.52 938.666667 512 747.52 85.333333 512 85.333333z m136.533333 531.342223c11.377778 11.377778 11.377778 29.582222 0 39.822222-5.688889 5.688889-12.515556 7.964444-20.48 7.964444s-14.791111-2.275556-20.48-7.964444L512 559.786667l-96.711111 96.711111c-5.688889 5.688889-12.515556 7.964444-20.48 7.964444s-14.791111-2.275556-20.48-7.964444c-11.377778-11.377778-11.377778-29.582222 0-39.822222l96.711111-96.711112-104.675556-104.675555c-11.377778-11.377778-11.377778-29.582222 0-39.822222 11.377778-11.377778 29.582222-11.377778 39.822223 0l104.675555 104.675555 104.675556-104.675555c11.377778-11.377778 29.582222-11.377778 39.822222 0 11.377778 11.377778 11.377778 29.582222 0 39.822222l-104.675556 104.675555 97.848889 96.711112z" p-id="2115" fill="#515151"></path></svg>